<svg xmlns="http://www.w3.org/2000/svg" width="25" height="25" id="text"><path style="text-indent:0;text-align:start;line-height:normal;text-transform:none;block-progression:tb;marker:none;-inkscape-font-specification:Sans" d="M12.5 0C5.602 0 0 5.602 0 12.5S5.602 25 12.5 25 25 19.398 25 12.5 19.398 0 12.5 0zm0 .969A11.519 11.519 0 0 1 24.031 12.5 11.519 11.519 0 0 1 12.5 24.031 11.519 11.519 0 0 1 .969 12.5 11.519 11.519 0 0 1 12.5.969zM6.5 5C5.677 5 5 5.678 5 6.5c0 .641.429 1.194 1 1.406v9.188c-.571.212-1 .765-1 1.406 0 .823.677 1.5 1.5 1.5.646 0 1.197-.422 1.406-1h9.188c.209.578.76 1 1.406 1 .823 0 1.5-.677 1.5-1.5 0-.647-.421-1.198-1-1.406V7.906c.579-.208 1-.76 1-1.406 0-.822-.677-1.5-1.5-1.5-.647 0-1.198.421-1.406 1H7.906c-.203-.589-.752-1-1.406-1zm0 1c.282 0 .5.218.5.5 0 .282-.218.5-.5.5a.493.493 0 0 1-.5-.5c0-.282.218-.5.5-.5zm12 0c.282 0 .5.218.5.5 0 .282-.218.5-.5.5a.493.493 0 0 1-.5-.5c0-.282.218-.5.5-.5zM7.906 7h9.188c.152.421.485.755.906.906v9.188a1.506 1.506 0 0 0-.906.906H7.906A1.473 1.473 0 0 0 7 17.094V7.906c.422-.146.749-.489.906-.906zM9 9.031V11.5h1v-1.469h2V16h-1v1h3v-1h-1v-5.969h2v1.438h1V9.03H9zM6.5 18c.282 0 .5.218.5.5 0 .282-.218.5-.5.5a.493.493 0 0 1-.5-.5c0-.282.218-.5.5-.5zm12 0c.282 0 .5.218.5.5 0 .282-.218.5-.5.5a.493.493 0 0 1-.5-.5c0-.282.218-.5.5-.5z" color="#000" font-family="Sans" font-weight="400" overflow="visible"></path></svg>